<svg id="chart"
  xmlns="http://www.w3.org/2000/svg" viewBox="0 0 60 57" font-family="system-ui, sans-serif" font-weight="600" font-size="1.4">
  <defs>
    <clipPath id="clipBox" clipPathUnits="userSpaceOnUse">
      <rect x="14" y="0.90" width="12" height="0.8" />
    </clipPath>
  </defs>
  <rect width="60" height="57" fill="#fff" />
  <g id="translation" transform="translate(-48 105) scale(4 -60)">
    <rect x="14" y="0.9" width="12" height="0.8" fill="#eec" clip-path="url(#clipBox)" />
    <g id="liking-lines" fill="none" stroke-linecap="square" clip-path="url(#clipBox)">
      <g id="cluster1" stroke="#B23" fill="#B234">
        <path stroke-width="3" vector-effect="non-scaling-stroke" d="M15.3 0.9C17.98 1.03 20.0 1.07 20.95 0.9" />
        <path stroke-width="3" vector-effect="non-scaling-stroke" d="M13.7 0.9C17.4 1.15 22.1 1.39 22.6 0.9" />
        <path stroke-width="3" vector-effect="non-scaling-stroke" d="M12.4 0.9C19 1.35 24.3 1.69 23.7 0.9" />
        <path stroke-width="3" vector-effect="non-scaling-stroke" d="M11.7 0.9C20.4 1.59 26.4 1.99 24.7 0.9" />
      </g>
      <g id="cluster2" stroke="#17C" fill="#17C4" >
        <path stroke-width="3" vector-effect="non-scaling-stroke" d="M26 1.07C24.3 1.26 24.8 1.35 26 1.46" />
        <path stroke-width="3" vector-effect="non-scaling-stroke" d="M26 0.97C22.5 1.27 21.4 1.33 26 1.555" />
        
        <path stroke-width="3" vector-effect="non-scaling-stroke" d="M14 1.3C14.9 1.4 14.9 1.5 14 1.625" />
        <path stroke-width="3" vector-effect="non-scaling-stroke" d="M14 1.185C17 1.39 16.3 1.5 14 1.74" />
        <path stroke-width="3" vector-effect="non-scaling-stroke" d="M14 1.11C19.7 1.38 18.7 1.43 14 1.81" />
        
      </g>
      <g id="both-clusters" stroke="#0f02" fill="#0f02">
        <ellipse stroke-width="3" transform="rotate(1.0 21.05 1.195)" rx="1.83" ry="0.08" cx="21.05" cy="1.195" vector-effect="non-scaling-stroke"/>
        <!-- <ellipse stroke-width="3" transform="rotate(1.1 21.1 1.196)" rx="5.68" ry="0.248" cx="21.1" cy="1.196" vector-effect="non-scaling-stroke"/>
        <ellipse stroke-width="3" transform="rotate(1.07 21.05 1.197)" rx="7.76" ry="0.337" cx="21.05" cy="1.197" vector-effect="non-scaling-stroke"/> -->
      </g>
    </g>
    <path id="recipe-line" clip-path="url(#clipBox)" d="M12 0.7L28.6 1.7" fill="none" stroke="#0c0" stroke-width="5" vector-effect="non-scaling-stroke" />
    <ellipse id="brew-point" cx="20.17" cy="1.1922" rx="0.15" ry="0.01" stroke="currentColor" fill="#fff" clip-path="url(#clipBox)" vector-effect="non-scaling-stroke"/>
    <path id="ticks" fill="none" stroke="currentColor" stroke-width="3" vector-effect="non-scaling-stroke" 
    d="M14 1.65h0.15
    M14 1.60h0.15M14 1.55h0.15M14 1.50h0.15M14 1.45h0.15M14 1.40h0.15M14 1.35h0.15M14 1.30h0.15M14 1.25h0.15M14 1.20h0.15M14 1.15h0.15M14 1.10h0.15M14 1.05h0.15M14 1.00h0.15M14 0.95h0.15
    M15 0.90v0.013M16 0.90v0.013M17 0.90v0.013M18 0.90v0.013M19 0.90v0.013M20 0.90v0.013M21 0.90v0.013
    M22 0.90v0.013M23 0.90v0.013M24 0.90v0.013M25 0.90v0.013" />
    <rect x="14" y="0.9" width="12" height="0.8" fill="none" stroke="currentColor" stroke-width="5" vector-effect="non-scaling-stroke" />

  </g>
  <g id="tasting-notes" font-weight="bold" text-anchor="middle" dominant-baseline="middle">
    <text x="13.2" y="18.5" font-size="1.7em">Berry</text>
    <text x="17.8" y="12.8" font-size="2.3em">Citrus</text>
    <text x="16.6" y="7.7" font-size="2.3em">Acid/Sour</text>
    <text x="48.6" y="13.1" font-size="2.1em">Roasted</text>
    <text x="24.5" y="49" font-size="1.8em">"Sweet"</text>
    <text x="46.7" y="47" font-size="1.8em">Black Tea</text>
    <text x="41" y="21.5" font-size="1.6em">Earthy</text>
  </g>
  <text x="3" y="27" font-size="1.4em" transform="rotate(-90 3 27)" text-anchor="middle" dominant-baseline="middle">Total Dissolved Solids (%)</text>
  <g id="tds-labels" text-anchor="end" dominant-baseline="middle" fill="currentColor">
    <text x="7.3" y="3">1.70</text>
    <text x="7.3" y="6">1.65</text>
    <text x="7.3" y="9">1.60</text>
    <text x="7.3" y="12">1.55</text>
    <text x="7.3" y="15">1.50</text>
    <text x="7.3" y="18">1.45</text>
    <text x="7.3" y="21">1.40</text>
    <text x="7.3" y="24">1.35</text>
    <text x="7.3" y="27">1.30</text>
    <text x="7.3" y="30">1.25</text>
    <text x="7.3" y="33">1.20</text>
    <text x="7.3" y="36">1.15</text>
    <text x="7.3" y="39">1.10</text>
    <text x="7.3" y="42">1.05</text>
    <text x="7.3" y="45">1.00</text>
    <text x="7.3" y="48">.95</text>
    <text x="7.3" y="51">.90</text>
  </g>
  <text x="36" y="55" font-size="1.4em" text-anchor="middle" dominant-baseline="middle">Extraction (%)</text>
  <g id="extraction-labels" text-anchor="middle" dominant-baseline="middle" fill="currentColor">
    <text x="8" y="52.5">14</text>
    <text x="12" y="52.5">15</text>
    <text x="16" y="52.5">16</text>
    <text x="20" y="52.5">17</text>
    <text x="24" y="52.5">18</text>
    <text x="28" y="52.5">19</text>
    <text x="32" y="52.5">20</text>
    <text x="36" y="52.5">21</text>
    <text x="40" y="52.5">22</text>
    <text x="44" y="52.5">23</text>
    <text x="48" y="52.5">24</text>
    <text x="52" y="52.5">25</text>
    <text x="56" y="52.5">26</text>
  </g>
</svg>